<?xml version="1.0" standalone="no"?>
<!DOCTYPE svg PUBLIC "-//W3C//DTD SVG 20010904//EN"
 "http://www.w3.org/TR/2001/REC-SVG-20010904/DTD/svg10.dtd">
<svg version="1.0" xmlns="http://www.w3.org/2000/svg"
 width="500.000000pt" height="500.000000pt" viewBox="0 0 500.000000 500.000000"
 preserveAspectRatio="xMidYMid meet">
<metadata>
Created by potrace 1.14, written by Peter Selinger 2001-2017
</metadata>
<g transform="translate(0.000000,500.000000) scale(0.100000,-0.100000)"
fill="#000000" stroke="none">
<path d="M2976 4148 c-47 -102 -44 -112 34 -121 25 -3 71 -9 102 -13 l57 -6
32 -77 c26 -63 33 -95 40 -191 4 -63 11 -129 14 -146 6 -28 4 -32 -20 -38 -14
-4 -42 -4 -61 0 -45 8 -111 -17 -149 -56 -28 -29 -31 -30 -127 -30 -115 0
-144 -10 -207 -70 -47 -46 -59 -47 -163 -19 -41 11 -46 20 -23 39 20 17 19 48
-4 112 -10 29 -22 65 -25 79 -3 14 -17 38 -31 53 -14 15 -25 32 -25 39 0 7
-26 40 -58 74 -48 52 -65 64 -105 73 -62 13 -117 -1 -179 -45 -64 -47 -79 -74
-86 -150 -4 -58 -2 -69 22 -105 14 -22 40 -47 57 -56 59 -30 128 -85 149 -118
33 -54 27 -85 -28 -139 -42 -42 -53 -47 -92 -47 -122 0 -207 -66 -256 -198
-11 -28 -35 -62 -60 -85 -24 -20 -48 -53 -54 -72 -6 -19 -15 -35 -18 -35 -11
1 -84 120 -93 154 -5 17 -9 53 -9 80 0 42 4 52 31 75 17 14 56 49 86 77 53 50
54 51 39 79 -10 20 -33 36 -72 52 -32 13 -58 23 -60 23 -1 0 -30 -47 -64 -105
-68 -114 -90 -175 -90 -243 0 -25 -5 -73 -12 -107 -24 -134 30 -375 96 -421
11 -8 44 -14 73 -14 44 0 71 10 173 61 108 55 128 69 192 139 l71 78 20 -25
c11 -14 40 -60 64 -101 36 -65 43 -85 43 -132 0 -49 -34 -251 -45 -269 -2 -4
-13 -30 -24 -59 l-21 -52 384 0 384 0 -24 65 c-13 36 -24 78 -24 93 0 15 -9
65 -21 112 -30 124 -28 181 8 265 17 39 41 106 53 150 12 44 31 98 42 119 11
22 26 77 34 124 20 127 42 149 164 172 114 22 164 53 298 183 112 111 122 123
122 157 0 85 -68 237 -170 379 -33 45 -67 95 -75 110 -7 15 -48 54 -91 87
-110 85 -125 94 -161 94 -29 0 -35 -5 -57 -52z"/>
<path d="M2493 1559 c-71 -21 -111 -121 -100 -252 11 -128 62 -182 172 -182
39 0 74 7 100 20 l40 20 3 98 3 97 -71 0 -70 0 0 -35 c0 -31 3 -35 25 -35 22
0 25 -4 25 -39 0 -26 -5 -41 -16 -45 -31 -12 -74 -6 -93 13 -39 39 -39 213 0
252 23 23 72 25 93 3 9 -8 16 -29 16 -45 0 -28 2 -29 46 -29 l47 0 -5 50 c-4
34 -13 59 -28 75 -38 41 -116 55 -187 34z"/>
<path d="M1430 1345 l0 -215 45 0 45 0 1 128 1 127 36 -127 36 -128 46 0 47 0
36 128 35 127 1 -127 1 -128 45 0 45 0 0 215 0 216 -67 -3 -68 -3 -35 -127
c-19 -71 -37 -128 -40 -128 -3 0 -21 59 -40 130 l-35 130 -67 0 -68 0 0 -215z"/>
<path d="M1900 1557 c0 -2 27 -69 60 -148 53 -128 60 -152 60 -211 l0 -68 45
0 45 0 0 66 c0 56 8 84 56 202 31 75 59 143 61 150 4 8 -9 12 -44 12 l-48 0
-28 -77 c-15 -43 -31 -84 -36 -91 -5 -9 -19 16 -42 77 l-33 91 -48 0 c-27 0
-48 -2 -48 -3z"/>
<path d="M2776 1523 c99 -237 104 -251 104 -323 l0 -70 45 0 45 0 0 63 c0 55
8 83 60 208 33 79 60 148 60 152 0 4 -21 7 -46 5 l-47 -3 -31 -82 c-17 -45
-33 -84 -36 -87 -3 -3 -21 35 -39 84 l-33 90 -49 0 -49 0 16 -37z"/>
<path d="M3140 1345 l0 -215 45 0 45 0 1 128 1 127 36 -127 36 -128 46 0 46 0
36 128 36 127 1 -127 1 -128 45 0 45 0 0 215 0 216 -67 -3 -66 -3 -37 -130
c-43 -148 -38 -150 -86 27 l-29 108 -67 0 -68 0 0 -215z"/>
<path d="M2436 800 c-74 -22 -100 -87 -94 -232 5 -118 20 -158 71 -185 38 -20
140 -23 175 -4 32 17 62 70 62 109 0 33 0 33 -42 30 -34 -2 -44 -7 -46 -23
-11 -57 -76 -74 -111 -29 -18 23 -21 41 -21 116 0 115 16 148 72 148 35 0 58
-24 58 -61 0 -28 2 -29 45 -29 l45 0 0 39 c0 96 -102 154 -214 121z"/>
<path d="M1282 763 c3 -38 3 -38 51 -41 l47 -3 0 -175 0 -174 45 0 45 0 0 175
0 175 50 0 50 0 0 40 0 40 -146 0 -145 0 3 -37z"/>
<path d="M1630 585 l0 -215 45 0 44 0 3 78 c3 67 5 77 21 77 14 0 26 -20 49
-77 l29 -78 49 0 48 0 -33 82 -33 82 28 26 c59 55 48 172 -19 217 -30 20 -47
23 -132 23 l-99 0 0 -215z m191 108 c13 -36 11 -51 -11 -73 -12 -12 -33 -20
-55 -20 l-35 0 0 59 c0 54 2 60 23 63 41 6 68 -4 78 -29z"/>
<path d="M2016 603 c-27 -109 -51 -206 -54 -215 -4 -15 3 -18 46 -18 l50 0 6
45 7 45 54 0 55 0 11 -45 c11 -45 12 -45 55 -45 33 0 44 4 44 15 0 13 -54 237
-91 378 l-10 37 -62 0 -63 0 -48 -197z m140 -30 c6 -33 6 -33 -31 -33 -28 0
-36 3 -32 15 4 8 12 42 19 76 l13 62 12 -43 c7 -24 16 -59 19 -77z"/>
<path d="M2720 585 l0 -215 45 0 45 0 0 64 c0 47 5 70 18 86 l18 23 39 -87 38
-86 49 0 c26 0 48 2 48 4 0 2 -27 60 -59 129 l-59 126 59 85 60 86 -55 0 -55
0 -48 -80 -48 -81 -3 81 -3 80 -44 0 -45 0 0 -215z"/>
<path d="M3080 585 l0 -215 130 0 130 0 0 40 0 40 -85 0 -85 0 0 50 0 50 70 0
70 0 0 40 0 40 -70 0 -70 0 0 45 0 45 85 0 85 0 0 40 0 40 -130 0 -130 0 0
-215z"/>
<path d="M3400 585 l0 -215 45 0 45 0 0 74 c0 60 3 75 17 80 23 9 33 -4 64
-82 l27 -67 46 -3 c25 -2 46 1 46 5 0 5 -14 42 -31 82 -26 63 -29 76 -17 85
34 26 48 61 48 121 0 108 -38 135 -190 135 l-100 0 0 -215z m188 123 c7 -7 12
-29 12 -50 0 -43 -19 -58 -74 -58 l-36 0 0 60 0 60 43 0 c24 0 48 -5 55 -12z"/>
</g>
</svg>
